<svg width="14" height="14" viewBox="0 0 14 14" fill="none" xmlns="http://www.w3.org/2000/svg">
<g clip-path="url(#clip0)">
<path d="M9.94644 7.54492H8.04411C7.52347 7.54492 7.1001 7.9683 7.1001 8.48894V9.94787C7.1001 10.4685 7.52347 10.8919 8.04411 10.8919H9.94644C10.4671 10.8919 10.8905 10.4685 10.8905 9.94787V8.48894C10.8905 7.9683 10.4671 7.54492 9.94644 7.54492ZM10.2039 9.94787C10.2039 10.0909 10.0866 10.2053 9.94644 10.2053H8.04411C7.90108 10.2053 7.78665 10.088 7.78665 9.94787V8.48894C7.78665 8.3459 7.90394 8.23148 8.04411 8.23148H9.94644C10.0895 8.23148 10.2039 8.34876 10.2039 8.48894V9.94787Z" fill="black"/>
<path d="M14 4.89309C14 4.83301 13.9857 4.7758 13.9542 4.72431L11.8717 1.06268C11.8116 0.956839 11.6972 0.888184 11.5742 0.888184H2.42297C2.29996 0.888184 2.18553 0.953979 2.12546 1.06268L0.0457703 4.72431C0.0171639 4.7758 0 4.83301 0 4.89309C0 5.71409 0.494892 6.41781 1.20147 6.72962V12.7684C1.20147 12.9572 1.35595 13.1117 1.54475 13.1117H3.44136C3.44422 13.1117 3.44708 13.1117 3.44994 13.1117H6.11034C6.1132 13.1117 6.11606 13.1117 6.11892 13.1117H12.4524C12.6412 13.1117 12.7957 12.9572 12.7957 12.7684V6.77253C12.7957 6.75823 12.7957 6.74679 12.7928 6.73534C13.5022 6.42353 14 5.71695 14 4.89309ZM2.62321 1.5776H11.3739L13.0016 4.44111H0.998365L2.62321 1.5776ZM9.96363 5.1248C9.85492 5.7427 9.31426 6.21184 8.6649 6.21184C8.01553 6.21184 7.47487 5.7427 7.36616 5.1248H9.96363ZM6.6367 5.1248C6.52799 5.7427 5.98733 6.21184 5.33797 6.21184C4.6886 6.21184 4.14794 5.7427 4.03637 5.1248H6.6367ZM0.70944 5.1248H3.30977C3.20106 5.7427 2.65754 6.21184 2.00817 6.21184C1.35881 6.21471 0.818145 5.7427 0.70944 5.1248ZM5.76706 12.4252H3.79322V8.72063C3.79322 8.45173 4.01063 8.23146 4.28239 8.23146H5.28075C5.54965 8.23146 5.76992 8.44887 5.76992 8.72063V12.4252H5.76706ZM12.1091 12.4252H6.45362V8.72063C6.45362 8.07413 5.92726 7.54491 5.27789 7.54491H4.27953C3.63302 7.54491 3.1038 8.07127 3.1038 8.72063V12.428H1.88803V6.8984C1.92808 6.90126 1.96812 6.90126 2.00817 6.90126C2.70045 6.90126 3.31263 6.5494 3.67307 6.01446C4.03351 6.5494 4.64569 6.90126 5.33797 6.90126C6.03024 6.90126 6.63956 6.5494 7.00286 6.01446C7.3633 6.5494 7.97548 6.90126 8.6649 6.90126C9.35717 6.90126 9.96649 6.5494 10.3269 6.01446C10.6874 6.5494 11.2996 6.90126 11.9918 6.90126C12.0319 6.90126 12.0691 6.8984 12.1091 6.8984V12.4252ZM11.9918 6.21471C11.3425 6.21471 10.8018 5.74556 10.6931 5.12766H13.2934C13.1819 5.7427 12.6412 6.21471 11.9918 6.21471Z" fill="black"/>
</g>
<defs>
<clipPath id="clip0">
<rect width="14" height="14" fill="white"/>
</clipPath>
</defs>
</svg>
