<svg width="11" height="11" viewBox="0 0 11 11" fill="none" xmlns="http://www.w3.org/2000/svg">
<path d="M7.89749 5.51953C7.68611 5.41905 7.47042 5.33249 7.25096 5.25998C7.96173 4.72648 8.42235 3.87696 8.42235 2.92188C8.42235 1.31076 7.11161 0 5.50048 0C3.88935 0 2.57861 1.31076 2.57861 2.92188C2.57861 3.87802 3.04026 4.72837 3.75236 5.26176C3.09992 5.47656 2.48773 5.81079 1.95191 6.25152C0.969383 7.0597 0.286244 8.18696 0.0283667 9.42569C-0.0524575 9.81383 0.0443726 10.2125 0.293978 10.5194C0.542359 10.8248 0.910666 11 1.30443 11H6.59618C6.8335 11 7.02587 10.8076 7.02587 10.5703C7.02587 10.333 6.8335 10.1406 6.59618 10.1406H1.30443C1.121 10.1406 1.01033 10.0382 0.960703 9.97721C0.875001 9.87183 0.84183 9.73466 0.869695 9.60083C1.3156 7.45895 3.20485 5.89432 5.38657 5.84156C5.42436 5.84302 5.46232 5.84375 5.50048 5.84375C5.539 5.84375 5.57735 5.843 5.61551 5.84152C6.2841 5.8572 6.92713 6.00978 7.52856 6.2957C7.74291 6.39753 7.99922 6.30642 8.1011 6.09207C8.20298 5.87774 8.11184 5.62141 7.89749 5.51953ZM5.60528 4.98173C5.57041 4.98111 5.53548 4.98079 5.50048 4.98079C5.4658 4.98079 5.43113 4.98113 5.3965 4.98178C4.30735 4.92744 3.43798 4.02428 3.43798 2.92188C3.43798 1.7846 4.3632 0.859375 5.50048 0.859375C6.63776 0.859375 7.56298 1.7846 7.56298 2.92188C7.56298 4.024 6.69404 4.92699 5.60528 4.98173Z" fill="#5B5B5B"/>
<path d="M10.5703 8.5293H9.38867V7.34766C9.38867 7.11034 9.1963 6.91797 8.95898 6.91797C8.72167 6.91797 8.5293 7.11034 8.5293 7.34766V8.5293H7.34766C7.11034 8.5293 6.91797 8.72167 6.91797 8.95898C6.91797 9.1963 7.11034 9.38867 7.34766 9.38867H8.5293V10.5703C8.5293 10.8076 8.72167 11 8.95898 11C9.1963 11 9.38867 10.8076 9.38867 10.5703V9.38867H10.5703C10.8076 9.38867 11 9.1963 11 8.95898C11 8.72167 10.8076 8.5293 10.5703 8.5293Z" fill="#5B5B5B"/>
</svg>
