<svg width="14" height="14" viewBox="0 0 14 14" fill="none" xmlns="http://www.w3.org/2000/svg">
<path d="M11.6468 2.43417C10.578 0.887332 8.88415 0 6.99987 0C5.11558 0 3.42172 0.887332 2.35293 2.43417C1.2894 3.97318 1.04382 5.92162 1.69472 7.64304C1.86881 8.11314 2.14556 8.56986 2.5153 8.99784L6.6272 13.8277C6.7202 13.937 6.85645 14 6.99987 14C7.14329 14 7.27954 13.937 7.37254 13.8277L11.4833 8.99916C11.8547 8.56871 12.1311 8.11248 12.3037 7.64616C12.9559 5.92162 12.7103 3.97318 11.6468 2.43417ZM11.387 7.30332C11.2539 7.66311 11.0365 8.01883 10.7414 8.36098C10.7405 8.3618 10.7397 8.36262 10.7391 8.36361L6.99987 12.7555L3.25837 8.36084C2.96336 8.01899 2.746 7.6633 2.61155 7.30007C2.07326 5.87642 2.27755 4.26543 3.15818 2.99091C4.04157 1.71232 5.4419 0.979016 6.99987 0.979016C8.55781 0.979016 9.95797 1.71229 10.8414 2.99091C11.7222 4.26543 11.9266 5.87642 11.387 7.30332Z" fill="black"/>
<path d="M7.00005 2.9043C5.4886 2.9043 4.25879 4.13394 4.25879 5.64556C4.25879 7.15718 5.48844 8.38683 7.00005 8.38683C8.51167 8.38683 9.74132 7.15718 9.74132 5.64556C9.74132 4.13411 8.51151 2.9043 7.00005 2.9043ZM7.00005 7.40778C6.02837 7.40778 5.2378 6.61722 5.2378 5.64553C5.2378 4.67385 6.02837 3.88329 7.00005 3.88329C7.97174 3.88329 8.7623 4.67385 8.7623 5.64553C8.7623 6.61722 7.97174 7.40778 7.00005 7.40778Z" fill="black"/>
</svg>
