<svg width="14" height="14" viewBox="0 0 14 14" fill="none" xmlns="http://www.w3.org/2000/svg">
<g clip-path="url(#clip0)">
<path d="M11.0645 8.67228C10.7779 8.37385 10.4322 8.21429 10.0658 8.21429C9.70232 8.21429 9.35366 8.37089 9.05522 8.66933L8.12151 9.60009C8.04468 9.55872 7.96786 9.52031 7.89399 9.4819C7.78761 9.42871 7.68715 9.37848 7.60146 9.32529C6.72684 8.76979 5.932 8.04587 5.16967 7.10919C4.80032 6.64234 4.55211 6.24935 4.37187 5.85045C4.61416 5.62884 4.83873 5.39837 5.05738 5.17676C5.14012 5.09402 5.22285 5.00833 5.30559 4.9256C5.92609 4.30509 5.92609 3.50139 5.30559 2.88088L4.49893 2.07422C4.40733 1.98262 4.31278 1.88807 4.22413 1.79352C4.04684 1.61032 3.86069 1.42121 3.66863 1.24393C3.38201 0.960265 3.03926 0.80957 2.67877 0.80957C2.31829 0.80957 1.96962 0.960265 1.67414 1.24393C1.67119 1.24688 1.67119 1.24688 1.66823 1.24983L0.663603 2.26333C0.285389 2.64154 0.0696892 3.10249 0.0224125 3.63731C-0.0485026 4.50011 0.20561 5.30381 0.400626 5.82977C0.879303 7.12101 1.59436 8.31771 2.66104 9.60009C3.95525 11.1454 5.51242 12.3658 7.29121 13.2256C7.97081 13.5477 8.87793 13.9289 9.89143 13.9939C9.95348 13.9968 10.0185 13.9998 10.0776 13.9998C10.7601 13.9998 11.3334 13.7545 11.7825 13.267C11.7855 13.2611 11.7914 13.2581 11.7943 13.2522C11.948 13.0661 12.1253 12.8976 12.3114 12.7174C12.4385 12.5963 12.5685 12.4692 12.6955 12.3362C12.9881 12.0319 13.1417 11.6773 13.1417 11.3139C13.1417 10.9475 12.9851 10.5959 12.6867 10.3004L11.0645 8.67228ZM12.1223 11.7837C12.1193 11.7837 12.1193 11.7866 12.1223 11.7837C12.0071 11.9078 11.8889 12.0201 11.7618 12.1442C11.5698 12.3274 11.3747 12.5194 11.1915 12.7351C10.8931 13.0542 10.5415 13.2049 10.0805 13.2049C10.0362 13.2049 9.98894 13.2049 9.94462 13.202C9.06704 13.1458 8.25152 12.8031 7.63988 12.5106C5.96746 11.7009 4.49893 10.5515 3.2786 9.09482C2.27101 7.8804 1.59732 6.75757 1.15114 5.55202C0.876348 4.81627 0.775885 4.24304 0.820207 3.70232C0.849755 3.3566 0.982721 3.06999 1.22797 2.82474L2.23555 1.81716C2.38034 1.68124 2.53399 1.60737 2.68468 1.60737C2.87084 1.60737 3.02153 1.71965 3.11608 1.8142C3.11904 1.81716 3.12199 1.82011 3.12495 1.82307C3.30519 1.99149 3.47657 2.16582 3.65681 2.35197C3.74841 2.44653 3.84296 2.54108 3.93752 2.63859L4.74418 3.44525C5.05738 3.75846 5.05738 4.04803 4.74418 4.36123C4.65849 4.44692 4.57575 4.53261 4.49006 4.61535C4.24186 4.86946 4.00548 5.10584 3.74841 5.33632C3.7425 5.34223 3.73659 5.34518 3.73364 5.35109C3.47952 5.6052 3.5268 5.85341 3.57999 6.02183C3.58294 6.03069 3.5859 6.03956 3.58885 6.04842C3.79864 6.55665 4.09412 7.03533 4.54325 7.6056L4.5462 7.60856C5.36173 8.61319 6.22157 9.39621 7.17006 9.99603C7.29121 10.0729 7.41531 10.1349 7.5335 10.194C7.63987 10.2472 7.74034 10.2974 7.82603 10.3506C7.83785 10.3565 7.84967 10.3654 7.86148 10.3713C7.96195 10.4215 8.0565 10.4452 8.15401 10.4452C8.39926 10.4452 8.55291 10.2915 8.60314 10.2413L9.61368 9.23074C9.71414 9.13028 9.8737 9.00913 10.0599 9.00913C10.243 9.00913 10.3937 9.12437 10.4853 9.22483C10.4883 9.22778 10.4883 9.22778 10.4913 9.23074L12.1193 10.8588C12.4237 11.1602 12.4237 11.4705 12.1223 11.7837Z" fill="black"/>
<path d="M7.56614 3.32989C8.34029 3.4599 9.04353 3.8263 9.60494 4.38771C10.1664 4.94912 10.5298 5.65236 10.6628 6.42652C10.6953 6.62153 10.8637 6.75745 11.0557 6.75745C11.0794 6.75745 11.1001 6.7545 11.1237 6.75154C11.3424 6.71609 11.4871 6.50925 11.4517 6.2906C11.2921 5.35393 10.8489 4.49999 10.1723 3.82334C9.49561 3.14669 8.64168 2.70347 7.70501 2.54391C7.48636 2.50846 7.28248 2.65324 7.24406 2.86894C7.20565 3.08464 7.34748 3.29443 7.56614 3.32989Z" fill="black"/>
<path d="M13.9835 6.17569C13.7206 4.63329 12.9937 3.22976 11.8768 2.11285C10.7598 0.995938 9.35632 0.269058 7.81392 0.00608141C7.59822 -0.0323309 7.39434 0.115409 7.35592 0.331109C7.32047 0.549764 7.46525 0.753645 7.68391 0.792057C9.06084 1.02549 10.3166 1.6785 11.3153 2.67426C12.3141 3.67298 12.9641 4.92877 13.1976 6.30571C13.2301 6.50072 13.3985 6.63664 13.5905 6.63664C13.6142 6.63664 13.6349 6.63369 13.6585 6.63073C13.8742 6.59823 14.0219 6.3914 13.9835 6.17569Z" fill="black"/>
</g>
<defs>
<clipPath id="clip0">
<rect width="14" height="14" fill="white"/>
</clipPath>
</defs>
</svg>
