<svg width="14" height="14" viewBox="0 0 14 14" fill="none" xmlns="http://www.w3.org/2000/svg">
<path d="M10.5733 8.32373C9.60022 8.32373 8.80859 9.11536 8.80859 10.0884C8.80859 11.0615 9.60022 11.8532 10.5733 11.8532C11.5466 11.8532 12.338 11.0615 12.338 10.0884C12.338 9.11536 11.5464 8.32373 10.5733 8.32373ZM10.5733 10.9708C10.0867 10.9708 9.69095 10.5751 9.69095 10.0884C9.69095 9.60183 10.0867 9.20609 10.5733 9.20609C11.0599 9.20609 11.4557 9.60183 11.4557 10.0884C11.4557 10.5751 11.0599 10.9708 10.5733 10.9708Z" fill="black"/>
<path d="M4.54401 8.32373C3.57093 8.32373 2.7793 9.11536 2.7793 10.0884C2.7793 11.0615 3.57093 11.8532 4.54401 11.8532C5.51709 11.8532 6.30872 11.0615 6.30872 10.0884C6.30872 9.11536 5.51709 8.32373 4.54401 8.32373ZM4.54401 10.9708C4.0574 10.9708 3.66165 10.5751 3.66165 10.0884C3.66165 9.60183 4.0574 9.20609 4.54401 9.20609C5.03048 9.20609 5.42636 9.60183 5.42636 10.0884C5.42636 10.5751 5.03062 10.9708 4.54401 10.9708Z" fill="black"/>
<path d="M11.7617 3.27225C11.6867 3.12328 11.5342 3.0293 11.3675 3.0293H9.04395V3.91165H11.0954L12.2967 6.30106L13.0853 5.90458L11.7617 3.27225Z" fill="black"/>
<path d="M9.24985 9.66162H5.91162V10.544H9.24985V9.66162Z" fill="black"/>
<path d="M3.22055 9.66162H1.69116C1.44748 9.66162 1.25 9.85913 1.25 10.1028C1.25 10.3465 1.4475 10.5439 1.69116 10.5439H3.22058C3.46427 10.5439 3.66175 10.3464 3.66175 10.1028C3.66175 9.8591 3.46424 9.66162 3.22055 9.66162Z" fill="black"/>
<path d="M13.9073 6.96461L13.0396 5.84696C12.9562 5.73931 12.8275 5.67637 12.6912 5.67637H9.48528V2.58814C9.48528 2.34445 9.28778 2.14697 9.04412 2.14697H1.69116C1.44748 2.14697 1.25 2.34448 1.25 2.58814C1.25 2.8318 1.4475 3.0293 1.69116 3.0293H8.60293V6.11753C8.60293 6.36122 8.80043 6.55869 9.04409 6.55869H12.4751L13.1176 7.38634V9.66164H11.897C11.6533 9.66164 11.4559 9.85914 11.4559 10.1028C11.4559 10.3465 11.6534 10.544 11.897 10.544H13.5588C13.8025 10.544 14 10.3465 14 10.1028V7.23521C14 7.13726 13.9673 7.04197 13.9073 6.96461Z" fill="black"/>
<path d="M3.19129 7.42627H1.16187C0.91818 7.42627 0.720703 7.62377 0.720703 7.86743C0.720703 8.11112 0.918207 8.3086 1.16187 8.3086H3.19127C3.43495 8.3086 3.63243 8.11109 3.63243 7.86743C3.63246 7.62377 3.43495 7.42627 3.19129 7.42627Z" fill="black"/>
<path d="M4.20588 5.69141H0.441164C0.197504 5.69141 0 5.88891 0 6.1326C0 6.37628 0.197504 6.57376 0.441164 6.57376H4.20588C4.44957 6.57376 4.64704 6.37626 4.64704 6.1326C4.64704 5.88894 4.44957 5.69141 4.20588 5.69141Z" fill="black"/>
<path d="M4.92658 3.95605H1.16187C0.91818 3.95605 0.720703 4.15356 0.720703 4.39722C0.720703 4.64091 0.918207 4.83838 1.16187 4.83838H4.92658C5.17027 4.83838 5.36775 4.64088 5.36775 4.39722C5.36777 4.15356 5.17027 3.95605 4.92658 3.95605Z" fill="black"/>
</svg>
