<svg width="11" height="11" viewBox="0 0 11 11" fill="none" xmlns="http://www.w3.org/2000/svg">
<path d="M11 1.71875V9.28125C11 10.229 10.229 11 9.28125 11H4.96289C4.01514 11 3.24414 10.229 3.24414 9.28125V8.42188C3.24414 8.18454 3.43649 7.99219 3.67383 7.99219C3.91116 7.99219 4.10352 8.18454 4.10352 8.42188V9.28125C4.10352 9.75508 4.48906 10.1406 4.96289 10.1406H9.28125C9.75508 10.1406 10.1406 9.75508 10.1406 9.28125V1.71875C10.1406 1.24492 9.75508 0.859375 9.28125 0.859375H4.96289C4.48906 0.859375 4.10352 1.24492 4.10352 1.71875V2.57812C4.10352 2.81546 3.91116 3.00781 3.67383 3.00781C3.43649 3.00781 3.24414 2.81546 3.24414 2.57812V1.71875C3.24414 0.771004 4.01514 0 4.96289 0H9.28125C10.229 0 11 0.771004 11 1.71875ZM4.85362 6.61291C4.68519 6.78008 4.6841 7.05216 4.85119 7.2206C4.9352 7.30527 5.04572 7.34766 5.15625 7.34766C5.26569 7.34766 5.37512 7.30611 5.45888 7.22303L6.42878 6.26077C6.63338 6.05775 6.74609 5.78761 6.74609 5.5C6.74609 5.21239 6.63338 4.94225 6.42878 4.73923L5.45888 3.77697C5.29044 3.60988 5.01836 3.61089 4.85119 3.7794C4.6841 3.94784 4.68519 4.21992 4.85362 4.38701L5.5423 5.07031H0.429688C0.192352 5.07031 0 5.26266 0 5.5C0 5.73734 0.192352 5.92969 0.429688 5.92969H5.5423L4.85362 6.61291Z" fill="#5B5B5B"/>
</svg>
