<svg width="10" height="10" viewBox="0 0 10 10" fill="none" xmlns="http://www.w3.org/2000/svg">
<path d="M9.66797 9.10547L7.36719 6.80469C7.9375 6.10938 8.28125 5.21875 8.28125 4.24805C8.28125 2.02148 6.47461 0.214844 4.24805 0.214844C2.01953 0.214844 0.214844 2.02148 0.214844 4.24805C0.214844 6.47461 2.01953 8.28125 4.24805 8.28125C5.21875 8.28125 6.10742 7.93945 6.80273 7.36914L9.10352 9.66797C9.25977 9.82422 9.51172 9.82422 9.66797 9.66797C9.82422 9.51367 9.82422 9.25977 9.66797 9.10547ZM4.24805 7.47852C2.46484 7.47852 1.01562 6.0293 1.01562 4.24805C1.01562 2.4668 2.46484 1.01562 4.24805 1.01562C6.0293 1.01562 7.48047 2.4668 7.48047 4.24805C7.48047 6.0293 6.0293 7.47852 4.24805 7.47852Z" fill="#5B5B5B"/>
</svg>
