<svg width="14" height="14" viewBox="0 0 14 14" fill="none" xmlns="http://www.w3.org/2000/svg">
<path d="M13.1984 2.09863H0.801629C0.359351 2.09863 0 2.45798 0 2.90026V11.0971C0 11.5394 0.359351 11.8987 0.801629 11.8987H13.1984C13.6406 11.8987 14 11.5394 14 11.0971V2.8994C14 2.45798 13.6406 2.09863 13.1984 2.09863ZM13.1776 11.0755L0.822361 11.0962L0.801629 2.92013L13.1776 2.8994V11.0755Z" fill="#030104"/>
<path d="M1.99071 5.86691L2.40621 8.84366H3.42639L5.32853 5.15771H4.25653L3.44885 6.86722C3.33482 7.10996 3.23548 7.32937 3.14997 7.53064C3.13442 7.32073 3.11714 7.11687 3.09641 6.90869L2.93315 5.15858H1.30225L2.99793 6.5001L1.99071 5.86691Z" fill="#030104"/>
<path d="M6.06018 8.84365L6.75902 5.15771H5.79931L5.09961 8.84365H6.06018Z" fill="#030104"/>
<path d="M6.62218 8.62657C6.84677 8.79501 7.2424 8.89522 7.68036 8.89522C8.58824 8.89522 9.1981 8.3821 9.1981 7.61935C9.1981 7.20212 8.9545 6.87128 8.45435 6.60954C8.17447 6.45232 8.0043 6.34693 8.0043 6.21391C8.0043 6.08951 8.13473 5.95562 8.44398 5.95562C8.74546 5.95562 8.97523 6.07397 9.01929 6.09729L9.12813 6.15689L9.43479 5.33626L9.35445 5.29134C9.12467 5.16436 8.83961 5.10303 8.48285 5.10303C7.61385 5.10303 7.00658 5.61096 7.00658 6.3383C7.00658 6.86523 7.42121 7.15807 7.78575 7.35502C8.12782 7.53297 8.1952 7.63403 8.1952 7.74892C8.1952 7.97006 7.95679 8.04867 7.75206 8.04867C7.48514 8.04867 7.20699 7.97352 6.98844 7.84221L6.88046 7.77829L6.55566 8.57819L6.62218 8.62657Z" fill="#030104"/>
<path d="M10.1266 8.84365L10.5386 7.94268H11.3696L11.4422 8.84365H12.439L12.0071 5.15771H10.8919L9.09863 8.84365H10.1266ZM11.1286 6.56661C11.1666 6.48369 11.2055 6.38866 11.2452 6.29105C11.2521 6.3783 11.2582 6.46036 11.2634 6.5312L11.3195 7.16092H10.8531L11.1286 6.56661Z" fill="#030104"/>
</svg>
