<svg width="14" height="14" viewBox="0 0 14 14" fill="none" xmlns="http://www.w3.org/2000/svg">
<path d="M13.557 9.64141L10.2676 8.54492C10.1062 8.49023 9.93125 8.51484 9.78906 8.60781L8.39453 9.5375C6.91797 8.83477 5.1625 7.08203 4.45977 5.60547L5.38945 4.21094C5.48242 4.07148 5.50703 3.89375 5.45234 3.73242L4.35586 0.442969C4.28203 0.21875 4.07148 0.0683594 3.83633 0.0683594H1.64336C0.735547 0.0683594 0 0.806641 0 1.71172C0 4.74141 1.36992 7.85039 3.75977 10.2402C6.14687 12.6301 9.25586 14 12.2883 14C13.1961 14 13.9316 13.2617 13.9316 12.3566V10.1637C13.9316 9.92578 13.7812 9.71797 13.557 9.64141ZM12.8352 12.3566C12.8352 12.6602 12.5891 12.9035 12.2883 12.9035C6.53516 12.9035 1.09648 7.46484 1.09648 1.71172C1.09648 1.4082 1.34258 1.16484 1.64336 1.16484H3.43984L4.32578 3.82539L3.37695 5.24727C3.27578 5.39766 3.25664 5.58633 3.325 5.75586C3.69141 6.66914 4.41328 7.69453 5.35938 8.64062C6.30547 9.58672 7.33086 10.3086 8.24414 10.675C8.41094 10.7434 8.60234 10.7215 8.75273 10.623L10.1746 9.67422L12.8352 10.5602V12.3566Z" fill="#63065F"/>
</svg>
