<svg width="13" height="14" viewBox="0 0 13 14" fill="none" xmlns="http://www.w3.org/2000/svg">
<path d="M9.89453 4.7885C9.89453 6.05971 8.9933 6.9135 7.65569 6.9135H4.61998V2.6635H7.65569C8.9933 2.6635 9.89453 3.5173 9.89453 4.7885ZM12.1429 4.7885C12.1429 2.35045 10.3783 0.642856 7.84542 0.642856H2.73214C2.56138 0.642856 2.42857 0.775669 2.42857 0.946428V6.9135H0.303571C0.132812 6.9135 0 7.04632 0 7.21708V8.63058C0 8.80134 0.132812 8.93415 0.303571 8.93415H2.42857V10.0536H0.303571C0.132812 10.0536 0 10.1864 0 10.3571V11.5714C0 11.7422 0.132812 11.875 0.303571 11.875H2.42857V13.6964C2.42857 13.8672 2.56138 14 2.73214 14H4.31641C4.48717 14 4.61998 13.8672 4.61998 13.6964V11.875H9.41071C9.58147 11.875 9.71429 11.7422 9.71429 11.5714V10.3571C9.71429 10.1864 9.58147 10.0536 9.41071 10.0536H4.61998V8.93415H7.84542C10.3783 8.93415 12.1429 7.22656 12.1429 4.7885Z" fill="black"/>
</svg>
