<svg width="36" height="36" viewBox="0 0 36 36" fill="none" xmlns="http://www.w3.org/2000/svg">
<g clip-path="url(#clip0)">
<path d="M35.7119 12.4594C35.4517 12.1289 35.065 11.9391 34.6431 11.9391H26.7259V9.6539C26.7259 4.84452 22.8095 0.928116 18.0001 0.928116C13.1908 0.928116 9.27436 4.84452 9.27436 9.6539V11.9391H1.35718C0.935302 11.9391 0.548583 12.1289 0.288427 12.4594C0.0282708 12.7898 -0.0561042 13.2117 0.0423333 13.6195L3.79702 28.6383L4.25405 30.4664L5.14702 34.0523C5.29468 34.657 5.83608 35.0789 6.46186 35.0789H29.5384C30.1572 35.0789 30.6986 34.657 30.8533 34.0523L31.458 31.6406L32.2103 28.6453L35.965 13.6266C36.0634 13.2117 35.972 12.7898 35.7119 12.4594ZM9.89311 15.6516C10.3712 15.6516 10.758 16.0383 10.758 16.5164C10.758 16.9945 10.3712 17.3812 9.89311 17.3812C9.41499 17.3812 9.02827 16.9945 9.02827 16.5164C9.02827 16.0383 9.42202 15.6516 9.89311 15.6516ZM30.4595 30.9305L30.1712 32.0695L29.7423 33.7711C29.7212 33.8625 29.6369 33.9328 29.5384 33.9328H6.46186C6.36343 33.9328 6.27905 33.8695 6.25796 33.7711L5.82905 32.0695L5.54077 30.9305L5.37905 30.2906L5.07671 32.4492H9.79468H26.1916H30.9095L30.4595 30.9305ZM25.6291 27.9281H10.3712H25.6291ZM9.23218 31.3031H5.63921L1.14624 13.3383C1.13218 13.275 1.14624 13.2117 1.1814 13.1555C1.22358 13.1062 1.27983 13.0711 1.35015 13.0711H9.26733V14.4984C9.26733 14.5336 9.27436 14.5687 9.27436 14.5969C8.46577 14.857 7.88218 15.6164 7.88218 16.5023C7.88218 17.6062 8.78218 18.5062 9.88608 18.5062C10.99 18.5062 11.89 17.6062 11.89 16.5023C11.89 15.5742 11.2572 14.7937 10.3994 14.5687C10.3994 14.5476 10.4064 14.5195 10.4064 14.4984V13.0781H23.0767C23.3931 13.0781 23.6462 12.825 23.6462 12.5086C23.6462 12.1922 23.3931 11.9391 23.0767 11.9391H10.4134V9.6539C10.4134 5.4703 13.8166 2.06718 18.0001 2.06718C22.1837 2.06718 25.5869 5.4703 25.5869 9.6539V11.9391H22.465C22.1486 11.9391 21.8955 12.1922 21.8955 12.5086C21.8955 12.825 22.1486 13.0781 22.465 13.0781H25.5869V14.5055C25.5869 14.5336 25.5869 14.5617 25.5939 14.5898C24.7642 14.8359 24.1525 15.6023 24.1525 16.5094C24.1525 17.6133 25.0525 18.5133 26.1564 18.5133C27.2603 18.5133 28.1603 17.6133 28.1603 16.5094C28.1603 15.6023 27.5486 14.8289 26.7189 14.5898C26.7259 14.5617 26.7259 14.5336 26.7259 14.5055V13.0781H34.6431C34.7064 13.0781 34.7697 13.1062 34.8119 13.1625C34.8541 13.2117 34.8681 13.282 34.847 13.3453L30.354 31.3101H26.7611L9.23218 31.3031ZM26.1564 15.6516C26.6345 15.6516 27.0212 16.0383 27.0212 16.5164C27.0212 16.9945 26.6345 17.3812 26.1564 17.3812C25.6783 17.3812 25.2915 16.9945 25.2915 16.5164C25.2915 16.0383 25.6783 15.6516 26.1564 15.6516Z" fill="#63065F"/>
</g>
<defs>
<clipPath id="clip0">
<rect width="36" height="36" fill="white"/>
</clipPath>
</defs>
</svg>
