<?xml version="1.0" encoding="utf-8"?>
<!-- Generator: Adobe Illustrator 19.1.1, SVG Export Plug-In . SVG Version: 6.00 Build 0)  -->
<svg version="1.1" id="Слой_1" xmlns="http://www.w3.org/2000/svg" xmlns:xlink="http://www.w3.org/1999/xlink" x="0px" y="0px"
	 viewBox="-391.8 257.8 165.7 58.9" style="enable-background:new -391.8 257.8 165.7 58.9;" xml:space="preserve">
<style type="text/css">
	.st0{fill:#189687;}
	.st1{fill:#63065F;}
</style>
<path d="M-390.4,304.7h7.6v0.3c-0.6,0-0.9,0.1-1.1,0.3c-0.2,0.2-0.2,0.6-0.2,1.2v5.1c0,1,0.1,1.6,0.2,1.8c0.1,0.2,0.5,0.3,1.1,0.3
	v2.9h-0.2c-0.1-0.7-0.4-1.2-0.7-1.6c-0.3-0.4-0.6-0.7-1-0.8c-0.4-0.1-0.8-0.2-1.4-0.2h-2.4c-1,0-1.8,0.3-2.3,0.8
	c-0.5,0.6-0.8,1.2-0.9,1.8h-0.2v-2.9c0.7-0.1,1.3-0.5,1.8-1.3c0.5-0.8,0.8-1.8,1-3c0.2-1.2,0.3-2.2,0.3-2.9c0-0.5-0.1-0.8-0.2-1
	c-0.1-0.2-0.3-0.3-0.4-0.4c-0.2-0.1-0.5-0.1-1-0.1V304.7z M-388.1,305.2c-0.1,2.7-0.3,4.6-0.6,5.7c-0.3,1.1-0.7,1.9-1.3,2.6h3.4
	c0.6,0,1-0.1,1.1-0.2c0.1-0.1,0.2-0.5,0.2-1v-7.1H-388.1z M-379.4,305.2v3.7h2c0.5,0,0.9-0.1,1.1-0.2c0.2-0.2,0.4-0.6,0.4-1.1h0.3
	v3.2h-0.3c-0.1-0.5-0.1-0.7-0.2-0.9c-0.1-0.2-0.2-0.3-0.4-0.4c-0.2-0.1-0.5-0.1-0.9-0.1h-2v3.1c0,0.4,0,0.7,0.1,0.8
	c0,0.1,0.1,0.2,0.2,0.2c0.1,0.1,0.3,0.1,0.5,0.1h1.6c0.5,0,0.9,0,1.1-0.1c0.2-0.1,0.5-0.2,0.7-0.4c0.3-0.3,0.6-0.7,0.9-1.3h0.3
	l-0.8,2.3h-7.1v-0.3h0.3c0.2,0,0.4-0.1,0.6-0.2c0.1-0.1,0.2-0.2,0.3-0.3c0.1-0.1,0.1-0.4,0.1-0.9v-6c0-0.6-0.1-1-0.2-1.1
	c-0.2-0.2-0.4-0.3-0.8-0.3h-0.3v-0.3h7.1l0.1,2h-0.3c-0.1-0.5-0.2-0.8-0.3-1c-0.1-0.2-0.3-0.3-0.5-0.4c-0.2-0.1-0.5-0.1-1-0.1
	H-379.4z M-364.3,313.7v0.3h-2.4c-0.3-0.4-0.8-1.2-1.6-2.3c-0.8-1.2-1.3-1.8-1.5-1.9c-0.2-0.1-0.5-0.2-0.8-0.2v2.8
	c0,0.6,0.1,1,0.2,1.2c0.2,0.2,0.5,0.3,1.1,0.3v0.3h-4v-0.3c0.6,0,0.9-0.1,1.1-0.3c0.2-0.2,0.2-0.6,0.2-1.2v-5.9c0-0.6-0.1-1-0.2-1.2
	c-0.2-0.2-0.5-0.3-1.1-0.3v-0.3h4v0.3c-0.6,0-0.9,0.1-1.1,0.3c-0.2,0.2-0.2,0.6-0.2,1.2v2.6c0.5,0,0.8,0,1-0.1
	c0.2-0.1,0.4-0.2,0.6-0.4c0.2-0.2,0.4-0.5,0.6-0.7c0.1-0.3,0.3-0.7,0.5-1.3c0.2-0.5,0.4-0.9,0.5-1.1c0.1-0.2,0.3-0.4,0.6-0.5
	c0.3-0.2,0.6-0.2,1-0.2c0.7,0,1.1,0.2,1.1,0.7c0,0.2-0.1,0.3-0.2,0.5c-0.1,0.1-0.3,0.2-0.5,0.2c-0.1,0-0.3-0.1-0.6-0.2
	c-0.3-0.1-0.4-0.2-0.6-0.2c-0.1,0-0.3,0.1-0.4,0.2c-0.1,0.2-0.3,0.5-0.5,1.2c-0.4,1.2-1,1.9-1.7,2.2c0.4,0.1,1,0.6,1.7,1.7
	c0.8,1.1,1.4,1.9,1.7,2.3C-365.3,313.5-364.9,313.7-364.3,313.7z M-359.4,304.5c1.2,0,2.2,0.5,3.1,1.4c0.9,0.9,1.3,2.1,1.3,3.4
	c0,1.4-0.4,2.6-1.3,3.5c-0.9,0.9-2,1.4-3.2,1.4c-1.3,0-2.3-0.5-3.2-1.4c-0.9-0.9-1.3-2.1-1.3-3.5c0-1.5,0.5-2.7,1.5-3.6
	C-361.6,304.9-360.6,304.5-359.4,304.5z M-359.5,305c-0.8,0-1.5,0.3-2,0.9c-0.6,0.8-0.9,1.9-0.9,3.4c0,1.5,0.3,2.7,1,3.5
	c0.5,0.6,1.2,0.9,2,0.9c0.9,0,1.6-0.3,2.2-1c0.6-0.7,0.9-1.8,0.9-3.2c0-1.6-0.3-2.8-0.9-3.5C-357.9,305.3-358.6,305-359.5,305z
	 M-351.4,309.7v2.7c0,0.6,0.1,0.9,0.2,1.1c0.2,0.2,0.4,0.3,0.8,0.3h0.4v0.3h-4v-0.3h0.3c0.4,0,0.7-0.1,0.8-0.4
	c0.1-0.1,0.1-0.5,0.1-1v-6c0-0.6-0.1-0.9-0.2-1.1c-0.2-0.2-0.4-0.3-0.8-0.3h-0.3v-0.3h3.4c0.8,0,1.5,0.1,2,0.3
	c0.5,0.2,0.9,0.5,1.2,0.9c0.3,0.4,0.5,0.9,0.5,1.4c0,0.8-0.3,1.4-0.8,1.8c-0.5,0.5-1.2,0.7-2.1,0.7c-0.2,0-0.5,0-0.7,0
	C-350.8,309.8-351.1,309.7-351.4,309.7z M-351.4,309.3c0.2,0,0.5,0.1,0.6,0.1c0.2,0,0.3,0,0.5,0c0.5,0,0.9-0.2,1.2-0.5
	c0.3-0.4,0.5-0.8,0.5-1.4c0-0.4-0.1-0.8-0.2-1.1c-0.2-0.3-0.4-0.6-0.7-0.8c-0.3-0.2-0.6-0.3-1-0.3c-0.2,0-0.5,0-0.9,0.1V309.3z
	 M-341.7,310.9h-3.6l-0.6,1.5c-0.2,0.4-0.2,0.6-0.2,0.8c0,0.1,0.1,0.3,0.2,0.4c0.1,0.1,0.4,0.2,0.9,0.2v0.3h-2.9v-0.3
	c0.4-0.1,0.6-0.2,0.8-0.3c0.2-0.2,0.5-0.7,0.8-1.3l3.3-7.6h0.2l3.2,7.7c0.3,0.6,0.5,1,0.7,1.2c0.2,0.2,0.5,0.3,0.9,0.3v0.3h-3.7
	v-0.3c0.4,0,0.6-0.1,0.7-0.2c0.1-0.1,0.2-0.2,0.2-0.4c0-0.2-0.1-0.5-0.3-1L-341.7,310.9z M-341.9,310.4l-1.6-3.7l-1.6,3.7H-341.9z
	 M-328,313.7v2.9h-0.2c-0.1-0.7-0.4-1.3-0.9-1.9c-0.5-0.5-1.2-0.8-2.2-0.8h-6.3v-0.3c0.6,0,0.9-0.1,1.1-0.3c0.2-0.2,0.2-0.6,0.2-1.2
	v-5.9c0-0.6-0.1-1-0.2-1.2c-0.2-0.2-0.5-0.3-1.1-0.3v-0.3h4v0.3c-0.6,0-0.9,0.1-1.1,0.3c-0.2,0.2-0.2,0.6-0.2,1.2v6.2
	c0,0.4,0,0.7,0.1,0.8c0.1,0.1,0.3,0.1,0.8,0.1h2.4c0.6,0,0.9,0,0.9-0.1c0-0.1,0.1-0.4,0.1-0.9v-6c0-0.6-0.1-1-0.2-1.2
	c-0.2-0.2-0.5-0.3-1.1-0.3v-0.3h4v0.3c-0.6,0-0.9,0.1-1.1,0.3c-0.2,0.2-0.2,0.6-0.2,1.2v5.9c0,0.6,0.1,1,0.2,1.2
	C-328.9,313.7-328.6,313.7-328,313.7z M-320.4,306.3c0-0.6-0.1-0.9-0.3-1.1c-0.2-0.2-0.5-0.2-1.1-0.2v-0.3h4v0.3
	c-0.6,0-0.9,0.1-1.1,0.3c-0.2,0.2-0.2,0.6-0.2,1.2v5.9c0,0.6,0.1,1,0.2,1.2c0.2,0.2,0.5,0.3,1.1,0.3v0.3h-4v-0.3
	c0.6,0,1-0.1,1.1-0.3c0.2-0.2,0.2-0.6,0.2-1.2V307l-4.3,5.5c0,0.4,0,0.7,0.1,0.8c0.1,0.1,0.2,0.2,0.3,0.3c0.2,0.1,0.5,0.1,0.9,0.1
	v0.3h-4v-0.3c0.6,0,0.9-0.1,1.1-0.3c0.2-0.2,0.2-0.6,0.2-1.2v-5.9c0-0.6-0.1-1-0.2-1.2c-0.2-0.2-0.5-0.3-1.1-0.3v-0.3h4v0.3
	c-0.6,0-0.9,0.1-1.1,0.3c-0.2,0.2-0.2,0.6-0.2,1.2v5.3L-320.4,306.3z M-310.1,306.3c0-0.6-0.1-0.9-0.3-1.1c-0.2-0.2-0.5-0.2-1.1-0.2
	v-0.3h4v0.3c-0.6,0-0.9,0.1-1.1,0.3c-0.2,0.2-0.2,0.6-0.2,1.2v5.9c0,0.6,0.1,1,0.2,1.2c0.2,0.2,0.5,0.3,1.1,0.3v0.3h-4v-0.3
	c0.6,0,1-0.1,1.1-0.3c0.2-0.2,0.2-0.6,0.2-1.2V307l-4.3,5.5c0,0.4,0,0.7,0.1,0.8c0.1,0.1,0.2,0.2,0.3,0.3c0.2,0.1,0.5,0.1,0.9,0.1
	v0.3h-4v-0.3c0.6,0,0.9-0.1,1.1-0.3c0.2-0.2,0.2-0.6,0.2-1.2v-5.9c0-0.6-0.1-1-0.2-1.2c-0.2-0.2-0.5-0.3-1.1-0.3v-0.3h4v0.3
	c-0.6,0-0.9,0.1-1.1,0.3c-0.2,0.2-0.2,0.6-0.2,1.2v5.3L-310.1,306.3z M-288,307.6h0.3c0.1-0.8,0.5-1.4,1.1-1.9
	c0.6-0.5,1.3-0.7,1.9-0.7c0.7,0,1.4,0.3,2,1c0.6,0.6,1,1.6,1.1,3h-3.6v0.5h3.6c0,0.9-0.2,1.6-0.5,2.3c-0.3,0.6-0.7,1.1-1.2,1.4
	c-0.5,0.3-1,0.5-1.7,0.5c-1.3,0-2.4-0.6-3.2-1.8l-0.2,0.1c0.9,1.4,2.1,2.1,3.7,2.1c1.4,0,2.5-0.5,3.4-1.4c0.9-0.9,1.3-2.1,1.3-3.4
	c0-1-0.2-1.8-0.7-2.6c-0.5-0.7-1-1.3-1.7-1.7c-0.7-0.4-1.4-0.6-2.3-0.6c-0.6,0-1.3,0.1-2,0.4c-0.2,0.1-0.3,0.1-0.4,0.1
	c-0.2,0-0.3-0.2-0.5-0.5h-0.2L-288,307.6z M-273.6,314l-3.6-7.8v6.2c0,0.6,0.1,0.9,0.2,1.1c0.2,0.2,0.4,0.3,0.8,0.3h0.3v0.3h-3.2
	v-0.3h0.3c0.4,0,0.7-0.1,0.8-0.4c0.1-0.1,0.1-0.5,0.1-1v-6.1c0-0.4,0-0.7-0.1-0.9c-0.1-0.1-0.2-0.2-0.4-0.3
	c-0.2-0.1-0.4-0.1-0.8-0.1v-0.3h2.6l3.4,7.3l3.3-7.3h2.6v0.3h-0.3c-0.4,0-0.7,0.1-0.8,0.4c-0.1,0.1-0.2,0.5-0.2,1v6.1
	c0,0.6,0.1,0.9,0.2,1.1c0.2,0.2,0.4,0.3,0.8,0.3h0.3v0.3h-3.9v-0.3h0.3c0.4,0,0.7-0.1,0.8-0.4c0.1-0.1,0.2-0.5,0.2-1v-6.2l-3.6,7.8
	H-273.6z M-261.6,304.5c1.2,0,2.2,0.5,3.1,1.4c0.9,0.9,1.3,2.1,1.3,3.4c0,1.4-0.4,2.6-1.3,3.5c-0.9,0.9-2,1.4-3.2,1.4
	c-1.3,0-2.3-0.5-3.2-1.4c-0.9-0.9-1.3-2.1-1.3-3.5c0-1.5,0.5-2.7,1.5-3.6C-263.9,304.9-262.9,304.5-261.6,304.5z M-261.8,305
	c-0.8,0-1.5,0.3-2,0.9c-0.6,0.8-0.9,1.9-0.9,3.4c0,1.5,0.3,2.7,1,3.5c0.5,0.6,1.2,0.9,2,0.9c0.9,0,1.6-0.3,2.2-1
	c0.6-0.7,0.9-1.8,0.9-3.2c0-1.6-0.3-2.8-0.9-3.5C-260.2,305.3-260.9,305-261.8,305z M-246.7,313.7v2.9h-0.2
	c-0.1-0.7-0.4-1.3-0.9-1.9c-0.5-0.5-1.2-0.8-2.2-0.8h-6.3v-0.3c0.6,0,0.9-0.1,1.1-0.3c0.2-0.2,0.2-0.6,0.2-1.2v-5.9
	c0-0.6-0.1-1-0.2-1.2c-0.2-0.2-0.5-0.3-1.1-0.3v-0.3h4v0.3c-0.6,0-0.9,0.1-1.1,0.3c-0.2,0.2-0.2,0.6-0.2,1.2v6.2
	c0,0.4,0,0.7,0.1,0.8c0,0.1,0.3,0.1,0.8,0.1h2.4c0.6,0,0.9,0,0.9-0.1c0-0.1,0.1-0.4,0.1-0.9v-6c0-0.6-0.1-1-0.2-1.2
	c-0.2-0.2-0.5-0.3-1.1-0.3v-0.3h4v0.3c-0.6,0-0.9,0.1-1.1,0.3c-0.2,0.2-0.2,0.6-0.2,1.2v5.9c0,0.6,0.1,1,0.2,1.2
	C-247.6,313.7-247.3,313.7-246.7,313.7z M-239,306.3c0-0.6-0.1-0.9-0.3-1.1c-0.2-0.2-0.5-0.2-1.1-0.2v-0.3h4v0.3
	c-0.6,0-0.9,0.1-1.1,0.3c-0.2,0.2-0.2,0.6-0.2,1.2v5.9c0,0.6,0.1,1,0.2,1.2c0.2,0.2,0.5,0.3,1.1,0.3v0.3h-4v-0.3
	c0.6,0,1-0.1,1.1-0.3c0.2-0.2,0.2-0.6,0.2-1.2V307l-4.3,5.5c0,0.4,0,0.7,0.1,0.8c0.1,0.1,0.2,0.2,0.3,0.3c0.2,0.1,0.5,0.1,0.9,0.1
	v0.3h-4v-0.3c0.6,0,0.9-0.1,1.1-0.3c0.2-0.2,0.2-0.6,0.2-1.2v-5.9c0-0.6-0.1-1-0.2-1.2c-0.2-0.2-0.5-0.3-1.1-0.3v-0.3h4v0.3
	c-0.6,0-0.9,0.1-1.1,0.3c-0.2,0.2-0.2,0.6-0.2,1.2v5.3L-239,306.3z M-228.8,306.3c0-0.6-0.1-0.9-0.3-1.1c-0.2-0.2-0.5-0.2-1.1-0.2
	v-0.3h4v0.3c-0.6,0-0.9,0.1-1.1,0.3c-0.2,0.2-0.2,0.6-0.2,1.2v5.9c0,0.6,0.1,1,0.2,1.2c0.2,0.2,0.5,0.3,1.1,0.3v0.3h-4v-0.3
	c0.6,0,1-0.1,1.1-0.3c0.2-0.2,0.2-0.6,0.2-1.2V307l-4.3,5.5c0,0.4,0,0.7,0.1,0.8c0.1,0.1,0.2,0.2,0.3,0.3c0.2,0.1,0.5,0.1,0.9,0.1
	v0.3h-4v-0.3c0.6,0,0.9-0.1,1.1-0.3c0.2-0.2,0.2-0.6,0.2-1.2v-5.9c0-0.6-0.1-1-0.2-1.2c-0.2-0.2-0.5-0.3-1.1-0.3v-0.3h4v0.3
	c-0.6,0-0.9,0.1-1.1,0.3c-0.2,0.2-0.2,0.6-0.2,1.2v5.3L-228.8,306.3z"/>
<path class="st0" d="M-296.3,308h2.9v0.3c-0.4,0-0.7,0.1-0.9,0.3c-0.2,0.1-0.5,0.6-0.9,1.3c-0.4,0.7-0.9,1.4-1.4,2
	c0.4,0.5,0.8,0.8,1.1,1c0.3,0.2,0.6,0.3,1,0.3c0.3,0,0.6-0.1,0.8-0.3c0.2-0.2,0.4-0.4,0.5-0.8l0.3,0.2c-0.2,0.6-0.4,1.1-0.8,1.4
	c-0.4,0.3-0.8,0.5-1.3,0.5c-0.4,0-0.8-0.1-1.1-0.3c-0.4-0.2-0.8-0.5-1.3-1c-0.6,0.5-1.1,0.8-1.5,1c-0.5,0.2-0.9,0.3-1.4,0.3
	c-0.8,0-1.3-0.2-1.8-0.6c-0.4-0.4-0.7-0.9-0.7-1.4c0-0.6,0.2-1.1,0.6-1.6c0.4-0.6,1.1-1.1,2.2-1.7c-0.2-0.5-0.4-0.9-0.4-1.2
	c-0.1-0.3-0.1-0.6-0.1-0.9c0-0.8,0.3-1.4,0.9-1.8c0.4-0.3,1-0.5,1.5-0.5c0.5,0,1,0.2,1.3,0.5c0.3,0.3,0.5,0.7,0.5,1.2
	c0,0.5-0.2,0.9-0.5,1.3c-0.3,0.4-0.9,0.8-1.8,1.2c0.6,1,1.2,2,1.8,2.8c0.8-1,1.2-1.8,1.2-2.4c0-0.2-0.1-0.4-0.2-0.6
	c-0.1-0.1-0.2-0.2-0.4-0.2V308z M-298.9,308.2c0.6-0.3,1-0.6,1.3-0.9c0.3-0.3,0.4-0.7,0.4-1.1c0-0.3-0.1-0.6-0.3-0.8
	c-0.2-0.2-0.5-0.3-0.8-0.3c-0.4,0-0.7,0.1-0.9,0.4c-0.2,0.3-0.3,0.5-0.3,0.8c0,0.2,0,0.5,0.1,0.8
	C-299.3,307.3-299.1,307.7-298.9,308.2z M-297.8,312.5c-0.6-0.8-1-1.4-1.3-1.8c-0.2-0.4-0.5-0.8-0.8-1.4c-0.5,0.3-1,0.7-1.2,1
	c-0.3,0.4-0.4,0.8-0.4,1.2c0,0.5,0.2,0.9,0.5,1.3c0.3,0.4,0.7,0.6,1.3,0.6c0.3,0,0.6-0.1,0.8-0.2
	C-298.6,313.1-298.3,312.9-297.8,312.5z"/>
<path class="st1" d="M-390.7,297v-1.1c1.3-0.1,2.3-0.2,2.8-0.4c0.6-0.2,1-0.7,1.2-1.3c0.3-0.6,0.4-1.6,0.4-3v-27.3
	c0-1.4-0.1-2.4-0.4-3c-0.2-0.6-0.6-1.1-1.2-1.3c-0.6-0.2-1.5-0.4-2.8-0.4v-1.1c1.5,0.1,3.9,0.2,7,0.2c3,0,5.3-0.1,7-0.2v1.1
	c-1.3,0.1-2.3,0.2-2.9,0.4c-0.6,0.2-1,0.7-1.2,1.3c-0.2,0.6-0.3,1.6-0.3,3v13h17.9v-13c0-1.4-0.1-2.4-0.4-3
	c-0.2-0.6-0.6-1.1-1.2-1.3c-0.6-0.2-1.5-0.4-2.8-0.4v-1.1c1.7,0.1,4,0.2,7,0.2c3.2,0,5.5-0.1,7-0.2v1.1c-1.3,0.1-2.3,0.2-2.9,0.4
	c-0.6,0.2-1,0.7-1.2,1.3c-0.2,0.6-0.3,1.6-0.3,3v27.3c0,1.4,0.1,2.4,0.3,3c0.3,0.6,0.7,1.1,1.2,1.3c0.6,0.2,1.5,0.4,2.9,0.4v1.1
	c-1.5-0.1-3.9-0.2-7-0.2c-2.9,0-5.3,0.1-7,0.2v-1.1c1.3-0.1,2.3-0.2,2.8-0.4c0.6-0.2,1-0.7,1.2-1.3c0.3-0.6,0.4-1.6,0.4-3V278h-17.9
	v13.2c0,1.4,0.1,2.4,0.3,3c0.3,0.6,0.7,1.1,1.2,1.3c0.6,0.2,1.5,0.4,2.9,0.4v1.1c-1.7-0.1-4-0.2-7-0.2
	C-386.8,296.8-389.2,296.9-390.7,297z M-346.8,297v-1.1c1.8-0.4,3.3-2,4.3-4.8l12.9-33.3h0.9l13.4,34.6c0.9,2.3,2.2,3.4,3.8,3.5v1.1
	c-1.5-0.1-3.5-0.2-5.9-0.2c-3.1,0-5.5,0.1-7,0.2v-1.1c1.4-0.1,2.4-0.2,3-0.5c0.6-0.3,0.9-0.8,0.9-1.5c0-0.6-0.2-1.5-0.6-2.6l-3.4-9
	h-13.3l-2.3,5.8c-0.7,1.9-1.1,3.4-1.1,4.5c0,1.2,0.4,2,1.2,2.5c0.8,0.5,2,0.8,3.6,0.8v1.1c-2.1-0.1-4.2-0.2-6.3-0.2
	C-344.3,296.8-345.7,296.9-346.8,297z M-337.4,281.2h12.5l-6.1-16.4L-337.4,281.2z M-304.5,297v-1.1c1.3-0.1,2.3-0.2,2.8-0.4
	c0.6-0.2,1-0.7,1.2-1.3c0.3-0.6,0.4-1.6,0.4-3v-27.3c0-1.4-0.1-2.4-0.4-3c-0.2-0.6-0.6-1.1-1.2-1.3c-0.6-0.2-1.5-0.4-2.8-0.4v-1.1
	c1.5,0.1,3.9,0.2,7,0.2c3,0,5.3-0.1,7-0.2v1.1c-1.3,0.1-2.3,0.2-2.9,0.4c-0.6,0.2-1,0.7-1.2,1.3c-0.2,0.6-0.3,1.6-0.3,3v13h17.9v-13
	c0-1.4-0.1-2.4-0.4-3c-0.2-0.6-0.6-1.1-1.2-1.3c-0.6-0.2-1.5-0.4-2.8-0.4v-1.1c1.7,0.1,4,0.2,7,0.2c3.2,0,5.5-0.1,7-0.2v1.1
	c-1.3,0.1-2.3,0.2-2.9,0.4c-0.6,0.2-1,0.7-1.2,1.3c-0.2,0.6-0.3,1.6-0.3,3v27.3c0,1.4,0.1,2.4,0.3,3c0.3,0.6,0.7,1.1,1.2,1.3
	c0.6,0.2,1.5,0.4,2.9,0.4v1.1c-1.5-0.1-3.9-0.2-7-0.2c-2.9,0-5.3,0.1-7,0.2v-1.1c1.3-0.1,2.3-0.2,2.8-0.4c0.6-0.2,1-0.7,1.2-1.3
	c0.3-0.6,0.4-1.6,0.4-3V278H-295v13.2c0,1.4,0.1,2.4,0.3,3c0.3,0.6,0.7,1.1,1.2,1.3c0.6,0.2,1.5,0.4,2.9,0.4v1.1
	c-1.7-0.1-4-0.2-7-0.2C-300.6,296.8-303,296.9-304.5,297z M-258.7,258.1c3,0.1,8.2,0.2,15.5,0.2c7.3,0,12.4-0.1,15.4-0.2
	c-0.3,2.6-0.4,5-0.4,7c0,1.9,0.1,3.4,0.2,4.5h-1.3c-0.1-1.4-0.3-2.6-0.4-3.4c-0.1-0.9-0.3-1.7-0.6-2.6c-0.3-0.9-0.6-1.5-0.9-2
	c-0.4-0.5-0.8-0.9-1.4-1.3c-0.6-0.4-1.3-0.7-2.1-0.8c-0.8-0.1-1.8-0.2-3-0.2h-3v31.3c0,0.9,0,1.7,0.1,2.3c0.1,0.6,0.3,1.1,0.5,1.5
	c0.2,0.4,0.5,0.7,1,0.9c0.5,0.2,1,0.3,1.6,0.4c0.6,0.1,1.4,0.2,2.4,0.2v1.1c-1.9-0.1-4.6-0.2-8.1-0.2c-3.7,0-6.4,0.1-8.1,0.2v-1.1
	c1,0,1.8-0.1,2.4-0.2c0.6-0.1,1.1-0.2,1.6-0.4c0.5-0.2,0.8-0.5,1-0.9c0.2-0.4,0.4-0.9,0.5-1.5c0.1-0.6,0.2-1.3,0.2-2.3v-31.3h-3
	c-1.2,0-2.2,0.1-3,0.2c-0.8,0.1-1.5,0.4-2.1,0.8c-0.6,0.4-1.1,0.8-1.4,1.3c-0.4,0.4-0.7,1.1-0.9,2c-0.3,0.9-0.4,1.7-0.6,2.6
	c-0.1,0.9-0.3,2-0.4,3.4h-1.3c0.1-1.1,0.2-2.6,0.2-4.5C-258.3,262.9-258.4,260.6-258.7,258.1z"/>
</svg>
